PathFileType	4	(X/Y/Z)	C:\Users\Basilio\Documents\Thesis Gigler\squatting_fais\c3dfiles\076\SLS_front_pre4\markers_experimental.trc
DataRate	CameraRate	NumFrames	NumMarkers	Units	OrigDataRate	OrigDataStartFrame	OrigNumFrames
200.000000	200.000000	4	61	mm	200.000000	810	1621
Frame#	Time	FHD			LBHD			RBHD			C7			T10			CLAV			LSHO			LUUPA			LMUPA			LDUPA			LLEP			LMEP			LRAD			LUL			LRFIN			RSHO			RUPA1			RMUPA			RDUPA			RLEP			RMEP			RRAD			RUL			RUFIN			RASI			USACR			LSACR			RSACR			LTHI1			LTHI2			LTHI3			LTHI4			LLFC			LMFC			LTIB1			LTIB2			LTIB3			LTIB4			LLMAL			LMMAL			LHEE			LMT1			LMT2			LMT5			RTHI			RTHI2			RTHI3			RTHI4			RLFC			RMFC			RTIB1			RTIB2			RTIB3			RTIB4			RLMAL			RMMAL			RHEE			RMT1			RMT2			RMT5			LASI			
		X1	Y1	Z1	X2	Y2	Z2	X3	Y3	Z3	X4	Y4	Z4	X5	Y5	Z5	X6	Y6	Z6	X7	Y7	Z7	X8	Y8	Z8	X9	Y9	Z9	X10	Y10	Z10	X11	Y11	Z11	X12	Y12	Z12	X13	Y13	Z13	X14	Y14	Z14	X15	Y15	Z15	X16	Y16	Z16	X17	Y17	Z17	X18	Y18	Z18	X19	Y19	Z19	X20	Y20	Z20	X21	Y21	Z21	X22	Y22	Z22	X23	Y23	Z23	X24	Y24	Z24	X25	Y25	Z25	X26	Y26	Z26	X27	Y27	Z27	X28	Y28	Z28	X29	Y29	Z29	X30	Y30	Z30	X31	Y31	Z31	X32	Y32	Z32	X33	Y33	Z33	X34	Y34	Z34	X35	Y35	Z35	X36	Y36	Z36	X37	Y37	Z37	X38	Y38	Z38	X39	Y39	Z39	X40	Y40	Z40	X41	Y41	Z41	X42	Y42	Z42	X43	Y43	Z43	X44	Y44	Z44	X45	Y45	Z45	X46	Y46	Z46	X47	Y47	Z47	X48	Y48	Z48	X49	Y49	Z49	X50	Y50	Z50	X51	Y51	Z51	X52	Y52	Z52	X53	Y53	Z53	X54	Y54	Z54	X55	Y55	Z55	X56	Y56	Z56	X57	Y57	Z57	X58	Y58	Z58	X59	Y59	Z59	X60	Y60	Z60	X61	Y61	Z61	

811	4.05	-250.6758422851563	1376.59716796875	-1029.151000976563	-388.3706054687501	1302.97412109375	-1125.790283203125	-374.8595581054688	1307.816162109375	-974.518737792969	-431.9480285644532	1187.973022460938	-1042.307250976563	-516.7701416015626	889.9995117187502	-1038.16162109375	-308.5574951171876	1106.357055664063	-1053.299560546875	-365.1053466796876	1140.887817382813	-1208.916259765625	-223.3244934082032	1104.873657226563	-1292.336181640625	-189.215805053711	1122.37060546875	-1260.071655273438	-157.2992095947266	1103.215087890625	-1309.010620117188	-106.7236022949219	1087.338745117188	-1323.411376953125	-93.75675201416017	1024.299682617188	-1275.50927734375	141.2852630615235	1126.550903320313	-1282.5751953125	134.9426574707032	1128.901977539063	-1347.210571289063	221.5636291503907	1149.658325195313	-1286.614501953125	-341.9017333984376	1137.581909179688	-896.6761474609377	-203.7509002685547	1090.644653320313	-810.1380004882815	-175.8356628417969	1123.835571289063	-832.4396972656252	-133.587890625	1088.09814453125	-806.3784179687502	-67.06592559814455	1095.708862304688	-811.761169433594	-60.83686828613283	1047.168579101563	-870.3555908203127	174.301010131836	1125.48779296875	-861.610778808594	166.1924743652344	1122.789794921875	-796.6927490234377	250.0823211669922	1144.324951171875	-849.7366943359377	-375.1799926757813	718.9169921875001	-933.249694824219	-544.6115112304689	774.1635742187502	-1034.026000976563	-553.1398925781251	745.6665039062501	-1064.138671875	-553.3756103515626	741.3372802734376	-1007.570678710938	-373.0886535644532	584.9776000976564	-1217.93603515625	-291.6585083007813	559.3422241210939	-1214.042358398438	-262.3909912109376	594.4935913085939	-1194.37109375	-270.4927368164063	502.8640747070314	-1205.508544921875	-159.1321258544922	398.3787841796876	-1168.562622070313	-150.6436462402344	415.4371948242189	-1053.43701171875	-185.2559356689453	282.6296691894532	-1062.751708984375	-229.4601440429688	226.8752746582032	-1117.59765625	-204.8764648437501	228.3288879394532	-1077.2607421875	-264.0305480957032	186.7472534179688	-1035.949340820313	-375.3056335449219	104.3131942749024	-1076.29345703125	-346.9976806640626	121.8788833618164	-995.1523437500002	-440.6642150878907	96.31550598144534	-1024.998046875	-239.1331787109376	52.07973861694337	-1004.357482910156	-233.3933868408204	48.57062911987306	-1043.254028320313	-257.7366333007813	43.05595397949219	-1093.05126953125	-286.3268127441407	536.7955932617189	-871.6253051757815	-220.353256225586	544.9423217773439	-880.062438964844	-208.3092041015626	576.0200195312501	-891.492126464844	-165.2204742431641	485.3277587890626	-899.2110595703127	-115.6797637939453	456.8576049804689	-906.736511230469	-105.2992019653321	472.2282104492189	-1022.898742675781	20.90905952453614	423.1334228515626	-931.774108886719	55.49089431762697	323.0648498535157	-903.8253173828127	80.19749450683595	360.7352905273438	-917.7671508789065	124.5697555541992	347.8907165527344	-952.638854980469	217.9576416015626	222.7209930419922	-921.0034179687502	210.8664855957032	247.920150756836	-1002.260620117188	217.2841796875001	158.7963409423828	-960.0836181640627	322.3724365234376	330.8291931152344	-993.7927246093752	318.2270202636719	344.1802062988282	-950.6037597656252	323.0500183105469	316.7447509765626	-895.545104980469	-382.6277465820313	715.4144287109376	-1146.162719726563	
812	4.055	-250.4674987792969	1375.794555664063	-1029.111450195313	-388.0984191894532	1303.1650390625	-1126.169921875	-374.7253112792969	1307.026000976563	-974.6348266601565	-431.6129455566407	1187.299926757813	-1042.419067382813	-516.6856689453126	889.2310791015627	-1038.146728515625	-308.3530578613282	1105.583984375	-1053.376342773438	-364.2976989746094	1139.802490234375	-1209.053955078125	-222.669418334961	1103.871704101563	-1292.374145507813	-188.7642364501953	1121.3681640625	-1260.112182617188	-157.0196380615235	1102.2431640625	-1308.8818359375	-106.3805084228516	1086.547485351563	-1323.339599609375	-93.5390090942383	1023.574584960938	-1275.415283203125	141.4881286621094	1125.851318359375	-1282.297607421875	135.9131317138672	1128.13427734375	-1347.32177734375	221.3429412841797	1149.181640625	-1285.8203125	-341.6586914062501	1136.77099609375	-896.7476196289065	-203.7033233642579	1089.843627929688	-810.2502441406252	-175.6702880859375	1123.163330078125	-832.5186157226565	-133.4063415527344	1087.404663085938	-806.3587646484377	-66.8696975708008	1094.905883789063	-811.7614746093752	-60.69699859619142	1046.269653320313	-870.2918090820315	174.6762084960938	1124.8486328125	-861.7786865234377	166.3467559814453	1121.999145507813	-796.7960205078127	250.3880004882813	1143.617065429688	-849.958190917969	-375.1851806640626	717.5446166992189	-933.3176269531252	-544.4409179687501	773.4953613281252	-1034.046630859375	-553.0673828125001	745.0214843750001	-1064.228881835938	-553.2917480468751	740.4461669921876	-1007.596984863281	-372.8654174804688	584.1452636718751	-1217.863037109375	-292.0049133300782	559.0861206054689	-1214.385986328125	-262.2933349609376	594.1016845703126	-1194.483154296875	-270.1860961914063	502.3918457031251	-1205.5439453125	-158.5764923095703	398.1169433593751	-1168.733642578125	-150.3131866455078	415.0704956054689	-1053.524291992188	-185.0478057861328	282.4219360351563	-1062.88330078125	-229.2384033203126	226.7358856201172	-1117.771484375	-204.6546630859376	228.254135131836	-1077.388061523438	-263.9753112792969	186.6508178710938	-1036.039428710938	-375.2993469238282	104.3116683959961	-1076.400390625	-346.9339904785157	121.9009323120117	-995.2946777343752	-440.868377685547	96.39722442626956	-1025.105346679688	-239.1392364501954	52.08315658569337	-1004.411804199219	-233.4166412353516	48.58564758300783	-1043.277099609375	-257.8254699707032	43.04965209960938	-1093.044921875	-286.2719421386719	536.0683593750001	-871.5899047851565	-220.2966461181641	544.0390625000001	-880.1387329101565	-208.1797027587891	575.1611938476564	-891.422302246094	-165.0970001220703	484.5325622558595	-899.2108154296877	-115.4809951782227	456.040496826172	-906.7225341796877	-105.3111190795899	471.4945373535157	-1022.933044433594	20.84741020202637	422.2784423828126	-931.6678466796877	55.61611938476564	322.3452453613282	-903.8178710937502	80.36630249023439	360.0906372070313	-917.7380981445315	124.5551223754883	346.9920349121094	-952.790466308594	218.2151641845704	221.9121551513672	-921.0559692382815	211.128158569336	247.1608428955079	-1002.471069335938	217.5197906494141	158.1963653564453	-960.0796508789065	321.6391601562501	329.4692382812501	-992.6268310546877	317.9866638183594	342.5940551757813	-950.9672851562502	323.1049499511719	316.1332397460938	-895.472595214844	-382.4924621582032	714.7208862304689	-1146.247924804688	
813	4.06	-250.259262084961	1374.908203125	-1029.160766601563	-387.957977294922	1302.236083984375	-1126.424682617188	-374.5518188476563	1306.228881835938	-974.7180786132815	-431.4094848632814	1186.6015625	-1042.551879882813	-516.6253662109376	888.5747070312502	-1038.1318359375	-308.1537170410157	1104.659790039063	-1053.406982421875	-364.1700134277344	1139.031616210938	-1209.1240234375	-222.2344665527344	1103.077758789063	-1292.33935546875	-188.4440612792969	1120.601806640625	-1260.150634765625	-156.7581481933594	1101.473388671875	-1308.827758789063	-106.1025161743164	1085.5888671875	-1323.154541015625	-93.22843170166017	1022.79150390625	-1275.308471679688	141.7432861328125	1125.220703125	-1282.112182617188	135.7547607421875	1127.344604492188	-1346.811279296875	222.0235137939454	1148.345825195313	-1286.179931640625	-341.3813476562501	1136.064575195313	-896.794860839844	-203.5090332031251	1089.0966796875	-810.3208007812502	-175.5473937988282	1122.499267578125	-832.6104736328127	-133.2306518554688	1086.59814453125	-806.4484863281252	-66.64293670654298	1094.234008789063	-811.8027954101565	-60.44118499755861	1045.57421875	-870.3430175781252	174.9859924316407	1124.184326171875	-861.8559570312502	166.5902099609375	1121.309814453125	-796.8606567382815	250.526840209961	1143.080322265625	-850.0538330078127	-375.1127014160157	716.7254638671876	-933.317077636719	-544.3127441406251	772.7005004882815	-1033.97900390625	-553.1140136718751	744.2451171875001	-1064.121337890625	-553.2092895507814	739.7359619140626	-1007.593017578125	-372.6093750000001	583.4901733398439	-1217.737670898438	-291.9459838867188	558.8051147460939	-1214.533447265625	-262.1250610351563	593.6488647460939	-1194.42626953125	-269.9571228027344	501.9270629882814	-1205.561157226563	-158.261474609375	397.9031982421876	-1168.852783203125	-150.0254974365235	414.760223388672	-1053.692993164063	-184.7983551025391	282.1910400390626	-1063.125732421875	-229.0925292968751	226.6605224609376	-1117.862426757813	-204.5003814697266	228.0263366699219	-1077.4638671875	-263.9053955078126	186.5277252197266	-1036.166870117188	-375.3011779785157	104.283935546875	-1076.51904296875	-346.9014892578126	121.9532012939453	-995.3660278320315	-440.6537475585939	96.33549499511722	-1024.9873046875	-239.1363525390626	52.11485290527345	-1004.411010742188	-233.4261322021485	48.57338714599611	-1043.291748046875	-257.7766418457032	42.99236679077149	-1093.0830078125	-286.1573791503907	535.1746826171876	-871.6187744140627	-220.1009521484376	543.3341064453126	-880.1562500000002	-208.0477905273438	574.2371826171876	-891.3706665039065	-164.9261932373047	483.5093688964845	-899.2915649414065	-115.407341003418	455.1411437988282	-906.786560058594	-105.387451171875	470.7659912109376	-1022.998718261719	20.84947776794434	421.5534667968751	-931.6441040039065	55.79490661621095	321.6069641113282	-903.941101074219	80.61410522460939	359.3938903808594	-917.7216796875002	124.7802200317383	346.3290710449219	-952.8084716796877	218.3951110839844	221.1541748046876	-921.0608520507815	212.0451965332032	246.4835968017579	-1002.958984375	217.6184387207032	157.4950714111328	-960.2111816406252	325.4420471191407	330.2870483398438	-997.443542480469	319.3137512207032	342.0089721679688	-951.3426513671877	323.2520446777344	315.0154418945313	-895.7800292968752	-382.5014648437501	713.8690185546876	-1146.222412109375	
814	4.065	-250.0288848876954	1374.121215820313	-1029.13916015625	-387.7579956054689	1300.783325195313	-1126.342407226563	-374.3960571289063	1305.3623046875	-974.7410278320315	-431.2377014160157	1185.908081054688	-1042.742309570313	-516.4676513671876	887.8137817382815	-1038.1484375	-307.8247070312501	1103.8212890625	-1053.382568359375	-364.2798461914063	1138.437866210938	-1209.16650390625	-222.2445068359376	1102.353637695313	-1292.36474609375	-188.1788024902344	1119.876708984375	-1260.177978515625	-156.0547637939453	1100.647705078125	-1308.793579101563	-105.6901168823242	1084.847534179688	-1323.198486328125	-92.83993530273439	1021.996215820313	-1275.177612304688	142.1946716308594	1124.739013671875	-1281.886840820313	136.0786285400391	1126.819091796875	-1346.695068359375	222.3735504150391	1147.718383789063	-1286.060302734375	-341.1608581542969	1135.34033203125	-896.9160156250002	-203.3073425292969	1088.411987304688	-810.3026123046877	-175.4084167480469	1121.614868164063	-832.6842041015627	-133.1220703125	1086.085327148438	-806.1445922851565	-66.46865081787111	1093.486206054688	-811.788024902344	-60.24762344360353	1044.895751953125	-870.318298339844	175.0314483642578	1123.40185546875	-861.9245605468752	166.7908325195313	1120.707641601563	-796.9239501953127	250.2675323486329	1141.899536132813	-850.3427734375002	-374.7445983886719	716.0749511718751	-933.950622558594	-544.3397216796876	772.0103149414065	-1033.944091796875	-553.0022583007814	743.4672851562501	-1064.12060546875	-553.1659545898439	739.0717163085939	-1007.606018066406	-372.4470520019532	583.1300048828126	-1217.941162109375	-291.8216857910157	558.4185180664064	-1214.620849609375	-262.0668334960938	593.2066650390626	-1194.461059570313	-269.6584777832032	501.4389648437501	-1205.906372070313	-158.0981750488282	397.6286926269532	-1169.077270507813	-149.8013458251953	414.4528198242189	-1053.75341796875	-184.5596466064453	282.0781860351563	-1063.234985351563	-229.0459594726563	226.4356689453126	-1117.921264648438	-204.3520965576172	227.8950347900391	-1077.682006835938	-263.7824707031251	186.4557037353516	-1036.26123046875	-375.2753906250001	104.2094192504883	-1076.564697265625	-346.8897705078126	121.9268341064453	-995.4555664062502	-440.914764404297	96.43440246582034	-1025.118408203125	-239.1457061767579	52.1680374145508	-1004.408752441406	-233.3857116699219	48.5768508911133	-1043.282836914063	-257.7635192871094	42.94166946411134	-1093.088134765625	-286.0738220214844	534.2444458007814	-871.6657714843752	-220.067611694336	542.3903808593751	-880.0736083984377	-207.8603515625001	573.4359130859376	-891.379577636719	-164.8304290771485	482.8354797363282	-899.385681152344	-115.318229675293	454.2906799316407	-906.8487548828127	-105.1182632446289	469.8290100097657	-1022.93603515625	21.02067184448243	420.7828369140626	-931.6257324218752	55.93877410888673	320.7255554199219	-903.9831542968752	80.7974319458008	358.5709533691407	-917.6802978515627	124.9563064575196	345.4822387695313	-952.7691040039065	218.5521240234376	220.4732666015626	-921.1016845703127	212.3997039794922	245.7438049316407	-1002.530700683594	217.9858703613282	156.7886352539063	-960.3970947265627	325.5503234863282	329.4869079589844	-997.395446777344	319.3184509277344	341.9001770019532	-951.7319946289065	323.5840454101563	314.3138732910157	-895.867370605469	-383.1362609863282	713.1866455078126	-1146.746215820313	
